<?xml version="1.0" encoding="iso-8859-1"?>
<!-- Generator: Adobe Illustrator 26.1.0, SVG Export Plug-In . SVG Version: 6.00 Build 0)  -->
<svg version="1.1" id="&#xB808;&#xC774;&#xC5B4;_1" xmlns="http://www.w3.org/2000/svg" xmlns:xlink="http://www.w3.org/1999/xlink"
	 x="0px" y="0px" viewBox="0 0 1024 1024" style="enable-background:new 0 0 1024 1024;" xml:space="preserve">
<g>
	<polygon style="fill:#931325;" points="150,895 382.785,895 382.785,656.113 150,618.34 	"/>
	<polygon style="fill:#931325;" points="641.215,895 874,895 874,735.821 641.215,698.048 	"/>
	<polygon style="fill:#DF2141;" points="874,129 641.215,129 641.215,325.952 874,288.179 	"/>
	<polygon style="fill:#DF2141;" points="382.785,129 150,129 150,379.53 150,405.66 382.785,367.887 	"/>
	<polygon style="fill:#B92146;" points="641.215,325.952 641.215,407 382.785,407 382.785,367.887 150,405.66 150,618.34 
		382.785,656.113 382.785,617 641.215,617 641.215,698.048 874,735.821 874,288.179 	"/>
</g>
</svg>
